<svg width="500" height="500" viewBox="0 0 500 500" fill="none" xmlns="http://www.w3.org/2000/svg">
<path d="M0 16C0 7.16345 7.16344 0 16 0H484C492.837 0 500 7.16344 500 16V484C500 492.837 492.837 500 484 500H16C7.16345 500 0 492.837 0 484V16Z" fill="#5D18EB"/>
<path d="M352.521 308H147.479C135.083 308 125 297.952 125 285.591V173.409C125 161.048 135.083 151 147.479 151H352.521C364.917 151 375 161.048 375 173.409V285.601C375 297.952 364.917 308 352.521 308ZM147.479 161.467C140.833 161.467 135.417 166.826 135.417 173.409V285.601C135.417 292.174 140.833 297.533 147.479 297.533H352.521C359.167 297.533 364.583 292.174 364.583 285.591V173.409C364.583 166.826 359.167 161.467 352.521 161.467H147.479ZM307.573 274.8C306.825 274.802 306.086 274.641 305.406 274.329C304.726 274.016 304.122 273.559 303.635 272.989L269.083 232.923C268.431 232.164 268.009 231.233 267.868 230.241C267.726 229.249 267.872 228.236 268.286 227.324C268.701 226.413 269.368 225.64 270.207 225.098C271.047 224.556 272.023 224.267 273.021 224.267H290.854V190.564C290.854 189.176 291.403 187.845 292.38 186.863C293.356 185.882 294.681 185.331 296.062 185.331H319.104C320.486 185.331 321.81 185.882 322.787 186.863C323.764 187.845 324.312 189.176 324.312 190.564V224.267H342.135C343.129 224.276 344.1 224.569 344.934 225.113C345.768 225.657 346.43 226.428 346.844 227.336C347.257 228.245 347.404 229.253 347.267 230.242C347.131 231.232 346.717 232.161 346.073 232.923L311.521 272.989C311.032 273.559 310.426 274.017 309.744 274.329C309.063 274.642 308.322 274.802 307.573 274.8ZM284.427 234.733L307.583 261.57L330.729 234.733H319.104C317.723 234.733 316.398 234.182 315.421 233.201C314.445 232.219 313.896 230.888 313.896 229.5V195.797H301.271V229.5C301.271 230.888 300.722 232.219 299.745 233.201C298.769 234.182 297.444 234.733 296.062 234.733H284.427ZM256.917 273.659H233.875C232.494 273.659 231.169 273.108 230.192 272.126C229.215 271.145 228.667 269.814 228.667 268.426V238.564L214.885 255.688C214.379 256.264 213.756 256.727 213.059 257.043C212.361 257.36 211.604 257.523 210.839 257.523C210.073 257.523 209.316 257.36 208.618 257.043C207.921 256.727 207.298 256.264 206.792 255.688L193.01 238.564V268.426C193.01 269.814 192.462 271.145 191.485 272.126C190.508 273.108 189.183 273.659 187.802 273.659H164.75C163.369 273.659 162.044 273.108 161.067 272.126C160.09 271.145 159.542 269.814 159.542 268.426V190.564C159.542 189.176 160.09 187.845 161.067 186.863C162.044 185.882 163.369 185.331 164.75 185.331H187.792C189.365 185.331 190.854 186.042 191.844 187.277L210.833 210.88L229.823 187.277C230.311 186.67 230.928 186.179 231.629 185.843C232.331 185.506 233.098 185.331 233.875 185.331H256.917C258.298 185.331 259.623 185.882 260.6 186.863C261.576 187.845 262.125 189.176 262.125 190.564V268.415C262.126 269.103 261.993 269.785 261.732 270.421C261.47 271.057 261.087 271.635 260.603 272.122C260.119 272.609 259.545 272.996 258.912 273.26C258.28 273.523 257.602 273.659 256.917 273.659ZM239.083 263.192H251.708V195.797H236.354L214.875 222.487C214.369 223.064 213.746 223.526 213.048 223.843C212.35 224.159 211.594 224.323 210.828 224.323C210.063 224.323 209.306 224.159 208.608 223.843C207.91 223.526 207.288 223.064 206.781 222.487L185.312 195.797H169.958V263.182H182.583V223.764C182.583 221.545 183.979 219.578 186.052 218.824C187.069 218.468 188.17 218.435 189.206 218.729C190.241 219.023 191.162 219.63 191.844 220.467L210.833 244.059L229.823 220.467C230.506 219.637 231.427 219.037 232.46 218.75C233.494 218.462 234.59 218.501 235.601 218.861C236.612 219.221 237.488 219.884 238.111 220.761C238.734 221.638 239.073 222.687 239.083 223.764V263.192Z" fill="#FFFEFE"/>
<path d="M145.947 337.273H152.394L159.204 353.886H159.494L166.304 337.273H172.751V362H167.68V345.906H167.475L161.076 361.879H157.622L151.223 345.845H151.018V362H145.947V337.273Z" fill="#FFFEFE"/>
<path d="M185.824 362H177.058V337.273H185.896C188.384 337.273 190.525 337.768 192.32 338.758C194.115 339.74 195.495 341.152 196.461 342.996C197.435 344.839 197.922 347.045 197.922 349.612C197.922 352.188 197.435 354.402 196.461 356.253C195.495 358.104 194.107 359.525 192.296 360.515C190.493 361.505 188.335 362 185.824 362ZM182.286 357.521H185.607C187.152 357.521 188.452 357.247 189.506 356.7C190.569 356.144 191.366 355.287 191.897 354.128C192.436 352.961 192.706 351.455 192.706 349.612C192.706 347.785 192.436 346.292 191.897 345.133C191.366 343.974 190.573 343.12 189.519 342.573C188.464 342.026 187.164 341.752 185.619 341.752H182.286V357.521Z" fill="#FFFEFE"/>
<path d="M201.795 362V337.273H211.55C213.426 337.273 215.024 337.631 216.344 338.347C217.664 339.056 218.67 340.042 219.362 341.305C220.062 342.561 220.413 344.01 220.413 345.652C220.413 347.294 220.058 348.743 219.35 349.999C218.642 351.254 217.615 352.232 216.271 352.933C214.935 353.633 213.317 353.983 211.418 353.983H205.199V349.793H210.572C211.579 349.793 212.408 349.62 213.06 349.274C213.72 348.92 214.211 348.433 214.533 347.813C214.863 347.185 215.028 346.465 215.028 345.652C215.028 344.831 214.863 344.115 214.533 343.503C214.211 342.883 213.72 342.404 213.06 342.066C212.4 341.72 211.562 341.547 210.548 341.547H207.023V362H201.795Z" fill="#FFFEFE"/>
<path d="M228.502 362.35C227.319 362.35 226.264 362.145 225.339 361.734C224.413 361.316 223.681 360.7 223.141 359.887C222.61 359.066 222.344 358.044 222.344 356.82C222.344 355.79 222.534 354.925 222.912 354.224C223.29 353.524 223.805 352.961 224.457 352.534C225.109 352.107 225.85 351.786 226.679 351.568C227.516 351.351 228.393 351.198 229.311 351.109C230.39 350.997 231.259 350.892 231.919 350.795C232.579 350.691 233.058 350.538 233.356 350.337C233.654 350.135 233.802 349.838 233.802 349.443V349.371C233.802 348.606 233.561 348.014 233.078 347.596C232.603 347.177 231.927 346.968 231.05 346.968C230.124 346.968 229.387 347.173 228.84 347.584C228.293 347.986 227.931 348.493 227.753 349.105L222.996 348.719C223.238 347.592 223.713 346.618 224.421 345.797C225.129 344.968 226.043 344.332 227.162 343.889C228.289 343.438 229.593 343.213 231.074 343.213C232.104 343.213 233.09 343.334 234.032 343.575C234.982 343.817 235.823 344.191 236.555 344.698C237.296 345.205 237.879 345.857 238.306 346.654C238.733 347.443 238.946 348.389 238.946 349.491V362H234.068V359.428H233.923C233.625 360.008 233.227 360.519 232.728 360.962C232.229 361.396 231.629 361.738 230.929 361.988C230.229 362.229 229.42 362.35 228.502 362.35ZM229.975 358.8C230.732 358.8 231.4 358.652 231.979 358.354C232.559 358.048 233.014 357.637 233.344 357.122C233.674 356.607 233.839 356.023 233.839 355.371V353.403C233.678 353.508 233.456 353.605 233.175 353.693C232.901 353.774 232.591 353.85 232.245 353.923C231.899 353.987 231.553 354.047 231.207 354.104C230.86 354.152 230.547 354.196 230.265 354.237C229.661 354.325 229.134 354.466 228.683 354.659C228.232 354.852 227.882 355.114 227.633 355.444C227.383 355.766 227.258 356.168 227.258 356.651C227.258 357.352 227.512 357.887 228.019 358.257C228.534 358.619 229.186 358.8 229.975 358.8Z" fill="#FFFEFE"/>
<path d="M242.936 362V343.455H247.923V346.69H248.116C248.454 345.539 249.022 344.67 249.818 344.082C250.615 343.487 251.533 343.189 252.571 343.189C252.829 343.189 253.107 343.205 253.404 343.237C253.702 343.269 253.964 343.314 254.189 343.37V347.934C253.948 347.862 253.614 347.797 253.187 347.741C252.76 347.684 252.37 347.656 252.016 347.656C251.259 347.656 250.583 347.821 249.987 348.151C249.4 348.473 248.933 348.924 248.587 349.504C248.249 350.083 248.08 350.751 248.08 351.508V362H242.936Z" fill="#FFFEFE"/>
<path d="M272.279 348.743L267.57 349.033C267.49 348.63 267.316 348.268 267.051 347.946C266.785 347.616 266.435 347.354 266 347.161C265.574 346.96 265.063 346.859 264.467 346.859C263.67 346.859 262.998 347.028 262.451 347.366C261.903 347.697 261.63 348.139 261.63 348.695C261.63 349.137 261.807 349.512 262.161 349.817C262.515 350.123 263.123 350.369 263.984 350.554L267.341 351.23C269.144 351.6 270.488 352.196 271.373 353.017C272.259 353.838 272.701 354.917 272.701 356.253C272.701 357.468 272.343 358.535 271.627 359.452C270.919 360.37 269.945 361.086 268.705 361.602C267.473 362.109 266.053 362.362 264.443 362.362C261.988 362.362 260.032 361.851 258.575 360.829C257.126 359.799 256.277 358.398 256.027 356.627L261.086 356.362C261.239 357.11 261.61 357.682 262.197 358.076C262.785 358.462 263.537 358.656 264.455 358.656C265.357 358.656 266.081 358.482 266.628 358.136C267.184 357.782 267.465 357.327 267.473 356.772C267.465 356.305 267.268 355.923 266.882 355.625C266.495 355.319 265.9 355.086 265.095 354.925L261.883 354.285C260.072 353.923 258.724 353.295 257.839 352.401C256.961 351.508 256.522 350.369 256.522 348.984C256.522 347.793 256.844 346.767 257.488 345.906C258.14 345.044 259.054 344.38 260.229 343.913C261.412 343.447 262.797 343.213 264.383 343.213C266.725 343.213 268.568 343.708 269.912 344.698C271.265 345.688 272.053 347.036 272.279 348.743Z" fill="#FFFEFE"/>
<path d="M284.392 362.362C282.484 362.362 280.842 361.976 279.466 361.203C278.097 360.422 277.043 359.32 276.302 357.895C275.562 356.462 275.192 354.768 275.192 352.812C275.192 350.904 275.562 349.23 276.302 347.789C277.043 346.348 278.085 345.225 279.43 344.42C280.782 343.616 282.368 343.213 284.187 343.213C285.41 343.213 286.549 343.41 287.604 343.805C288.666 344.191 289.592 344.775 290.381 345.555C291.177 346.336 291.797 347.318 292.24 348.501C292.683 349.677 292.904 351.053 292.904 352.631V354.043H277.244V350.856H288.062C288.062 350.115 287.901 349.459 287.579 348.888C287.257 348.316 286.811 347.87 286.239 347.548C285.676 347.218 285.02 347.053 284.271 347.053C283.49 347.053 282.798 347.234 282.195 347.596C281.599 347.95 281.132 348.429 280.794 349.033C280.456 349.628 280.283 350.292 280.275 351.025V354.055C280.275 354.973 280.444 355.766 280.782 356.434C281.128 357.102 281.615 357.617 282.243 357.979C282.871 358.342 283.615 358.523 284.476 358.523C285.048 358.523 285.571 358.442 286.046 358.281C286.521 358.12 286.927 357.879 287.266 357.557C287.604 357.235 287.861 356.84 288.038 356.374L292.795 356.688C292.554 357.83 292.059 358.829 291.31 359.682C290.57 360.527 289.612 361.187 288.437 361.662C287.27 362.129 285.921 362.362 284.392 362.362Z" fill="#FFFEFE"/>
<path d="M296.261 362V343.455H301.247V346.69H301.44C301.778 345.539 302.346 344.67 303.143 344.082C303.94 343.487 304.857 343.189 305.896 343.189C306.153 343.189 306.431 343.205 306.729 343.237C307.026 343.269 307.288 343.314 307.513 343.37V347.934C307.272 347.862 306.938 347.797 306.511 347.741C306.085 347.684 305.694 347.656 305.34 347.656C304.583 347.656 303.907 347.821 303.312 348.151C302.724 348.473 302.257 348.924 301.911 349.504C301.573 350.083 301.404 350.751 301.404 351.508V362H296.261Z" fill="#FFFEFE"/>
<path d="M310.269 362V337.273H315.497V348.175H315.823L324.722 337.273H330.988L321.812 348.344L331.097 362H324.842L318.069 351.834L315.497 354.973V362H310.269Z" fill="#FFFEFE"/>
<path d="M334.776 362V343.455H339.92V362H334.776ZM337.36 341.064C336.595 341.064 335.939 340.81 335.392 340.303C334.853 339.788 334.583 339.172 334.583 338.456C334.583 337.748 334.853 337.14 335.392 336.633C335.939 336.118 336.595 335.86 337.36 335.86C338.125 335.86 338.777 336.118 339.316 336.633C339.863 337.14 340.137 337.748 340.137 338.456C340.137 339.172 339.863 339.788 339.316 340.303C338.777 340.81 338.125 341.064 337.36 341.064Z" fill="#FFFEFE"/>
<path d="M353.904 343.455V347.318H342.736V343.455H353.904ZM345.271 339.011H350.415V356.301C350.415 356.776 350.487 357.146 350.632 357.412C350.777 357.67 350.978 357.851 351.236 357.955C351.501 358.06 351.807 358.112 352.154 358.112C352.395 358.112 352.636 358.092 352.878 358.052C353.119 358.004 353.305 357.967 353.433 357.943L354.242 361.771C353.985 361.851 353.622 361.944 353.156 362.048C352.689 362.161 352.121 362.229 351.453 362.254C350.214 362.302 349.127 362.137 348.193 361.759C347.268 361.38 346.547 360.793 346.032 359.996C345.517 359.199 345.263 358.193 345.271 356.977V339.011Z" fill="#FFFEFE"/>
<path d="M233.573 386.93H228.285C228.188 386.246 227.991 385.638 227.693 385.107C227.395 384.567 227.013 384.108 226.546 383.73C226.079 383.352 225.54 383.062 224.928 382.861C224.324 382.66 223.668 382.559 222.96 382.559C221.68 382.559 220.565 382.877 219.616 383.513C218.666 384.141 217.929 385.058 217.406 386.266C216.883 387.465 216.621 388.922 216.621 390.636C216.621 392.399 216.883 393.88 217.406 395.08C217.937 396.279 218.678 397.184 219.628 397.796C220.578 398.408 221.676 398.714 222.924 398.714C223.624 398.714 224.272 398.621 224.868 398.436C225.472 398.251 226.007 397.981 226.474 397.627C226.94 397.265 227.327 396.826 227.633 396.311C227.947 395.796 228.164 395.208 228.285 394.548L233.573 394.572C233.436 395.707 233.094 396.802 232.547 397.857C232.007 398.903 231.279 399.841 230.361 400.67C229.452 401.491 228.365 402.143 227.101 402.626C225.846 403.101 224.425 403.338 222.839 403.338C220.634 403.338 218.662 402.839 216.923 401.841C215.193 400.843 213.824 399.398 212.818 397.506C211.82 395.615 211.321 393.325 211.321 390.636C211.321 387.94 211.828 385.646 212.842 383.754C213.856 381.863 215.233 380.422 216.971 379.432C218.71 378.434 220.666 377.935 222.839 377.935C224.272 377.935 225.6 378.136 226.824 378.538C228.055 378.941 229.146 379.528 230.096 380.301C231.046 381.066 231.818 382.004 232.414 383.114C233.018 384.225 233.404 385.497 233.573 386.93Z" fill="#FFFEFE"/>
<path d="M245.605 403.362C243.729 403.362 242.107 402.964 240.739 402.167C239.379 401.362 238.328 400.243 237.588 398.81C236.847 397.37 236.477 395.699 236.477 393.8C236.477 391.884 236.847 390.21 237.588 388.777C238.328 387.336 239.379 386.217 240.739 385.42C242.107 384.616 243.729 384.213 245.605 384.213C247.48 384.213 249.098 384.616 250.458 385.42C251.827 386.217 252.881 387.336 253.622 388.777C254.362 390.21 254.733 391.884 254.733 393.8C254.733 395.699 254.362 397.37 253.622 398.81C252.881 400.243 251.827 401.362 250.458 402.167C249.098 402.964 247.48 403.362 245.605 403.362ZM245.629 399.378C246.482 399.378 247.194 399.136 247.766 398.653C248.337 398.162 248.768 397.494 249.058 396.649C249.356 395.804 249.505 394.842 249.505 393.763C249.505 392.685 249.356 391.723 249.058 390.878C248.768 390.033 248.337 389.365 247.766 388.874C247.194 388.383 246.482 388.137 245.629 388.137C244.768 388.137 244.043 388.383 243.456 388.874C242.876 389.365 242.437 390.033 242.139 390.878C241.85 391.723 241.705 392.685 241.705 393.763C241.705 394.842 241.85 395.804 242.139 396.649C242.437 397.494 242.876 398.162 243.456 398.653C244.043 399.136 244.768 399.378 245.629 399.378Z" fill="#FFFEFE"/>
<path d="M258.077 403V384.455H263.063V387.69H263.257C263.595 386.539 264.162 385.67 264.959 385.082C265.756 384.487 266.674 384.189 267.712 384.189C267.969 384.189 268.247 384.205 268.545 384.237C268.843 384.269 269.104 384.314 269.33 384.37V388.934C269.088 388.862 268.754 388.797 268.328 388.741C267.901 388.684 267.511 388.656 267.157 388.656C266.4 388.656 265.724 388.821 265.128 389.151C264.541 389.473 264.074 389.924 263.728 390.504C263.389 391.083 263.22 391.751 263.22 392.508V403H258.077Z" fill="#FFFEFE"/>
<path d="M279.578 403.362C277.67 403.362 276.028 402.976 274.651 402.203C273.283 401.422 272.229 400.32 271.488 398.895C270.747 397.462 270.377 395.768 270.377 393.812C270.377 391.904 270.747 390.23 271.488 388.789C272.229 387.348 273.271 386.225 274.615 385.42C275.967 384.616 277.553 384.213 279.372 384.213C280.596 384.213 281.735 384.41 282.789 384.805C283.852 385.191 284.777 385.775 285.566 386.555C286.363 387.336 286.983 388.318 287.426 389.501C287.868 390.677 288.09 392.053 288.09 393.631V395.043H272.43V391.856H283.248C283.248 391.115 283.087 390.459 282.765 389.888C282.443 389.316 281.996 388.87 281.425 388.548C280.861 388.218 280.205 388.053 279.457 388.053C278.676 388.053 277.984 388.234 277.38 388.596C276.784 388.95 276.318 389.429 275.979 390.033C275.641 390.628 275.468 391.292 275.46 392.025V395.055C275.46 395.973 275.629 396.766 275.967 397.434C276.314 398.102 276.801 398.617 277.428 398.979C278.056 399.342 278.801 399.523 279.662 399.523C280.234 399.523 280.757 399.442 281.232 399.281C281.707 399.12 282.113 398.879 282.451 398.557C282.789 398.235 283.047 397.84 283.224 397.374L287.981 397.688C287.739 398.83 287.244 399.829 286.496 400.682C285.755 401.527 284.797 402.187 283.622 402.662C282.455 403.129 281.107 403.362 279.578 403.362Z" fill="#FFFEFE"/>
</svg>
